<svg viewBox="0 0 200 200" xmlns="http://www.w3.org/2000/svg"><path d="m14.44 128.65h166.94v1.5h-166.94z" fill="#f48120"/><path d="m160.09 63.85h20.19l-18.49 18.93h-20.13z" fill="#f48120"/><path d="m133.9 63.85h20.19l-18.49 18.93h-20.13z" fill="#f48120"/><g fill="#231f20"><path d="m32.73 99.48c-1.34.77-3.08.68-4.67.66h-5.7v-7.29h7.08a13.68 13.68 0 0 1 3 .38 3.56 3.56 0 0 1 1.89 3.17 3.76 3.76 0 0 1 -1.6 3.06zm.28 15a5 5 0 0 1 -2.32.76c-.46 0-1.63 0-1.63 0h-6.61v-8.93h7.61a16.73 16.73 0 0 1 1.91.21 4 4 0 0 1 3 3.06c.24 1.91-.25 4-1.93 4.85zm4.57 5.67a15 15 0 0 1 -6.44 1.26c-2.45 0-13.24 0-13.24 0a3.31 3.31 0 0 1 -3-2.66 10.67 10.67 0 0 1 -.22-1.7v-22.11s.09-2.55 0-3.82c0-1.77.39-3.13 1.94-4s3.65-.43 4.78-.56h11.52c3.77.11 7.17 2 8.44 5.38 1.06 2.79.77 6.51-1.27 8.7a6.85 6.85 0 0 1 -3.4 2.12 7.81 7.81 0 0 1 2.93 1.53 9.2 9.2 0 0 1 3.1 8.93 9.71 9.71 0 0 1 -5.1 6.95z" fill-rule="evenodd"/><path d="m168.51 114.51c-2.81 1.41-6.95 1.34-9.33-.81-4.28-4.12-4.64-11-2.47-16.32a8.51 8.51 0 0 1 7.14-5 8.18 8.18 0 0 1 7.87 4.38 18 18 0 0 1 .55 13.27 9 9 0 0 1 -3.76 4.48zm3.36 6.08c-5.81 2.57-13.67 2.26-18.56-2.08-6.12-5.34-7.4-14.35-5-21.85a15.81 15.81 0 0 1 11.69-10.46c6.84-1.38 14.17.38 18.32 6.18s4.27 16.05.21 22.39a17.42 17.42 0 0 1 -6.69 5.82z" fill-rule="evenodd"/><path d="m67.6 121.08a7.36 7.36 0 0 1 -1.83.3h-16.86a3.61 3.61 0 0 1 -2.49-1.94 9 9 0 0 1 -.42-3.14v-26.79a2.89 2.89 0 0 1 1.91-2.87 19.89 19.89 0 0 1 2.09-.17h16.39c1.76.15 2.44.86 2.76 2.13a3.29 3.29 0 0 1 -.72 3 4.17 4.17 0 0 1 -2.58 1h-12.35v7.44h12.48a3.13 3.13 0 0 1 2.89 1.59 3.1 3.1 0 0 1 -2.57 4.47h-12.8v8.93s8.42 0 12.86.06a3.26 3.26 0 0 1 3 2 3.11 3.11 0 0 1 -1.72 3.93z"/><path d="m92.62 120.66a3.43 3.43 0 0 1 -2.43.68h-14.79a4.17 4.17 0 0 1 -3.53-2.62l-.26-1.57v-27c.22-2.23 1.13-3.32 2.45-3.74a4.53 4.53 0 0 1 3.72.34 4.38 4.38 0 0 1 1.59 3.55v24.83h.39s7 0 10.88 0a3.41 3.41 0 0 1 2.55 1.44 3.17 3.17 0 0 1 -.57 4.13z"/><path d="m100 121.78a3.88 3.88 0 0 1 -4.1-1.61 5.75 5.75 0 0 1 -.85-3v-27.38a3.92 3.92 0 0 1 6.5-2.79 3.42 3.42 0 0 1 1.21 2.67v27.09c0 2.44-.32 4.4-2.81 5z"/><path d="m143.25 118.25c-.08 2.13-1 3.09-2.27 3.47a3.49 3.49 0 0 1 -3.47-.85 3.54 3.54 0 0 1 -.95-2.49c-.13-1.59-.11-22.6-.11-22.6s-5.38 21.47-5.38 21.47-.32 1.28-.68 2.24c-.74 1.85-2.21 2.31-3.85 2.34s-4-.17-4.91-1.94a13.89 13.89 0 0 1 -1.14-3l-5.3-21v22.9a3 3 0 0 1 -2.48 3 3.73 3.73 0 0 1 -3.17-.66c-.81-.59-1-1.27-1.26-2.91v-26.75c-.1-2.7 1.26-4.19 2.53-4.72 2.21-.83 5.34-1 7.49.34a6.73 6.73 0 0 1 1.91 3.25c.36 1.13.64 2.4.64 2.4l5 20.73 5.47-23.23a8.57 8.57 0 0 1 .36-1.15 4.09 4.09 0 0 1 3-2.66c2-.34 4.91-.55 6.78.62a4.72 4.72 0 0 1 1.85 4.42v26.78z" fill-rule="evenodd"/><path d="m181.29 88.27v.89h.92c.21 0 .36-.11.36-.45 0-.19 0-.44-.34-.44zm2.42 3.21h-1c-.13-.26-.21-.41-.57-1.07-.13-.25-.26-.44-.45-.44a2.18 2.18 0 0 1 -.4 0v1.51h-.85v-4s1.87 0 2.1 0c.68.1.79.46.91 1a1 1 0 0 1 -.93 1.28c.08 0 .42.1.66.78.19.32.23.56.38.75s.15.15.15.15z" fill-rule="evenodd"/><path d="m178.91 89.54a3 3 0 1 1 3 2.91 3 3 0 0 1 -3-2.91zm-.64 0a3.65 3.65 0 1 1 3.63 3.64 3.69 3.69 0 0 1 -3.63-3.64z" fill-rule="evenodd"/></g></svg>