<svg viewBox="0 0 200 200" xmlns="http://www.w3.org/2000/svg"><g fill="#ff000f"><g fill-rule="evenodd"><path d="m24.33 101.33-11.33 32.04h16.68l4.68-14.02h10.67v-18.02z"/><path d="m45.03 67.3h-8.66l-11.34 32.03h20z"/><path d="m47.04 119.35h10.67l4.68 14.02h16.68l-11.33-32.04h-20.7z"/><path d="m67.04 99.33-11.34-32.03h-8.66v32.03z"/></g><path d="m181.68 99.33a21.47 21.47 0 0 0 -7.85-6.52 14 14 0 0 0 -8-25.51h-4.66v32z"/><path d="m161.16 101.33v32h3.34a21.06 21.06 0 0 0 21-21.1v-.23a20.94 20.94 0 0 0 -2.5-10.67z"/><path d="m139.13 67.3h20.02v32.03h-20.02z"/><path d="m139.13 101.33h20.02v32.03h-20.02z"/><path d="m127.62 99.33a21.39 21.39 0 0 0 -7.85-6.52 14 14 0 0 0 -8-25.51h-4.67v32z"/><path d="m107.1 101.33v32h3.34a21.07 21.07 0 0 0 21-21.1 2.17 2.17 0 0 0 0-.26 20.94 20.94 0 0 0 -2.54-10.68z"/><path d="m85.08 67.3h20.02v32.03h-20.02z"/><path d="m85.08 101.33h20.02v32.03h-20.02z"/></g></svg>